# xmcd
# Copyright (C) 1995-1998 Ti Kan
#
# Track frame offsets:
#       150
#       19241
#       39266
#       59040
#       78789
#       90811
#       105539
#       122535
#       138191
#       160891
#       180456
#       200409
#       223063
#       267549
#       284116
#       298769
#       315961
#
# Disc length: 4364 seconds
#
# Revision: 0
# Processed by: cddbd v1.5.2PL0 Copyright (c) Steve Scherf et al.
# Submitted via: CD-Import v1.0
#
DISCID=ef110a11
DTITLE=Sia - Some People Have Real Problems
DYEAR=1900
DGENRE=
TTITLE0=Little Black Sandals
TTITLE1=Lentil
TTITLE2=Day Too Soon
TTITLE3=You Have Been Loved
TTITLE4=The Girl You Lost To Cocaine
TTITLE5=Academia
TTITLE6=I Go To Sleep
TTITLE7=Playground
TTITLE8=Death By Chocolate
TTITLE9=Soon We'll Be Found
TTITLE10=Electric Bird
TTITLE11=Beautiful Calm Driving
TTITLE12=Lullaby
TTITLE13=Bring It To Me
TTITLE14=Buttons
TTITLE15=Cares At The Door
TTITLE16=Blame It On The Radio
EXTD=
EXTT0=
EXTT1=
EXTT2=
EXTT3=
EXTT4=
EXTT5=
EXTT6=
EXTT7=
EXTT8=
EXTT9=
EXTT10=
EXTT11=
EXTT12=
EXTT13=
EXTT14=
EXTT15=
EXTT16=
PLAYORDER=
